#!OML:ASF E:\Mandelcareful walks\Project 1\Capture day 1\Session 1\Subject1.ASF
:FULLY-SPECIFIED
:DEGREES
371
root 12.7464 10.6352 0.0130473 195.259 -60.9027 -182.706
lowerback 53.9062 1.00023 0.985144
upperback 12.4727 -1.79375 1.06127
thorax -7.02187 -2.23862 1.63144
lowerneck -23.0577 5.50453 6.45663
upperneck 10.6582 6.96297 -9.22483
head 7.58412 2.70379 -3.19533
rclavicle -6.13251e-014 -5.35228e-014
rhumerus 46.8232 -7.78269 -49.6349
rradius 132.802
rwrist -28.9278
rhand -26.6734 -10.5845
rfingers 7.12502
rthumb -0.104641 -40.5642
lclavicle -6.13251e-014 -5.35228e-014
lhumerus 53.0731 -5.26768 52.293
lradius 134.666
lwrist 18.3012
lhand -48.2706 -61.9654
lfingers 7.12502
lthumb -20.9284 -33.0744
rfemur -94.9062 -18.3486 18.1086
rtibia 109.325
rfoot -22.8903 1.21758
rtoes -6.15089
lfemur -73.5283 44.1982 -7.59046
ltibia 113.991
lfoot -32.6687 11.0122
ltoes -14.5952
372
root 12.7536 10.7448 -0.00443816 195.891 -61.0295 -183.078
lowerback 54.0588 0.960183 0.89595
upperback 12.111 -1.79721 0.975337
thorax -7.44442 -2.19965 1.59485
lowerneck -23.9098 6.16538 6.304
upperneck 9.70078 7.79562 -9.37592
head 7.47152 3.06583 -3.09179
rclavicle -1.32192e-014 -4.71617e-014
rhumerus 45.3628 -7.04858 -49.5259
rradius 132.657
rwrist -28.3688
rhand -27.5992 -10.9334
rfingers 7.12502
rthumb -0.998855 -40.9109
lclavicle -1.32192e-014 -4.71617e-014
lhumerus 51.8377 -5.58185 52.8612
lradius 134.591
lwrist 17.8528
lhand -48.328 -62.4752
lfingers 7.12502
lthumb -20.9836 -33.5903
rfemur -94.3491 -18.0905 17.8915
rtibia 108.444
rfoot -22.8286 0.871091
rtoes -6.02998
lfemur -73.2865 43.4383 -8.00401
ltibia 112.962
lfoot -32.4006 11.3886
ltoes -15.7503
373
root 12.7555 10.8578 -0.0231247 196.913 -61.1891 -183.901
lowerback 54.1087 0.894856 0.780423
upperback 11.7835 -1.84925 0.836525
thorax -7.82035 -2.17767 1.52946
lowerneck -24.8498 6.78182 6.1591
upperneck 8.86954 8.60871 -9.81721
head 7.4275 3.38307 -3.08673
rclavicle -1.49089e-014 -1.95057e-014
rhumerus 43.6461 -6.47049 -49.3804
rradius 132.553
rwrist -27.7692
rhand -28.297 -10.6833
rfingers 7.12502
rthumb -1.67279 -40.6565
lclavicle -1.49089e-014 -1.95057e-014
lhumerus 50.5418 -6.04707 53.4361
lradius 134.558
lwrist 17.5276
lhand -48.6962 -62.7183
lfingers 7.12502
lthumb -21.3372 -33.873
rfemur -93.7591 -18.0711 17.4398
rtibia 107.593
rfoot -22.802 0.685997
rtoes -5.67923
lfemur -72.9453 42.524 -8.58785
ltibia 111.883
lfoot -32.2928 11.6101
ltoes -16.5291
374
root 12.7596 10.9669 -0.0434426 197.643 -61.4077 -184.358
lowerback 54.0811 0.834099 0.783851
upperback 11.473 -1.82717 0.750998
thorax -8.17123 -2.12414 1.43412
lowerneck -25.5492 7.47721 6.24485
upperneck 7.89313 9.5157 -10.7131
head 7.34692 3.71825 -3.25667
rclavicle 1.44119e-014 2.34566e-014
rhumerus 41.7486 -6.08929 -49.2143
rradius 132.596
rwrist -27.3167
rhand -28.172 -10.3687
rfingers 7.12502
rthumb -1.55201 -40.3428
lclavicle 1.44119e-014 2.34566e-014
lhumerus 49.2588 -6.47872 54.0104
lradius 134.576
lwrist 17.566
lhand -48.2282 -62.782
lfingers 7.12502
lthumb -20.8877 -33.8865
rfemur -93.173 -17.9329 17.1572
rtibia 106.747
rfoot -22.8044 0.406657
rtoes -5.24113
lfemur -72.7036 41.7498 -8.93745
ltibia 110.811
lfoot -32.1616 11.5828
ltoes -17.0813
375
root 12.7626 11.0647 -0.0659309 197.655 -61.5034 -183.971
lowerback 54.0109 0.867203 0.884013
upperback 11.1852 -1.64965 0.733532
thorax -8.49353 -2.01019 1.30041
lowerneck -26.2558 8.09039 6.08769
upperneck 6.98276 10.3245 -11.247
head 7.25083 4.03241 -3.27959
rclavicle 3.22404e-014 -8.90757e-014
rhumerus 39.9869 -5.39467 -49.0562
rradius 132.466
rwrist -26.5973
rhand -27.5511 -9.9602
rfingers 7.12502
rthumb -0.952371 -39.9378
lclavicle 3.22404e-014 -8.90757e-014
lhumerus 47.9711 -7.03867 54.3343
lradius 134.394
lwrist 16.9512
lhand -46.9206 -62.1304
lfingers 7.12502
lthumb -19.631 -33.1016
rfemur -92.6575 -17.3596 17.2704
rtibia 105.914
rfoot -22.8401 -0.0797386
rtoes -5.01816
lfemur -72.5242 41.5757 -8.87715
ltibia 109.828
lfoot -31.9028 11.3676
ltoes -17.3821
376
root 12.7477 11.1525 -0.0846468 197.987 -61.5586 -183.844
lowerback 53.6792 0.817986 0.998004
upperback 10.9591 -1.57265 0.589365
thorax -8.72307 -1.93199 1.0582
lowerneck -27.0728 8.62342 6.01251
upperneck 6.28056 10.9817 -11.6297
head 7.2206 4.28168 -3.28391
rclavicle -7.39852e-015 3.15012e-014
rhumerus 38.4003 -4.90655 -48.9042
rradius 132.092
rwrist -26.0609
rhand -27.0708 -9.1772
rfingers 7.12502
rthumb -0.488454 -39.1564
lclavicle -7.39852e-015 3.15012e-014
lhumerus 46.6951 -7.81929 54.2215
lradius 134.1
lwrist 15.7703
lhand -46.6601 -61.3313
lfingers 7.12502
lthumb -19.3805 -32.2771
rfemur -92.3083 -17.0327 17.2538
rtibia 105.19
rfoot -22.9253 -0.302861
rtoes -4.75719
lfemur -72.3616 41.4884 -9.12808
ltibia 108.929
lfoot -31.8161 11.2484
ltoes -17.9032
